<!DOCTYPE svg PUBLIC "-//W3C//DTD SVG 20010904//EN" "http://www.w3.org/TR/2001/REC-SVG-20010904/DTD/svg10.dtd">
<svg version="1.0" xmlns="http://www.w3.org/2000/svg" width="858px" height="854px" viewBox="0 0 8580 8540" preserveAspectRatio="xMidYMid meet">
<g id="layer101" fill="#000000" stroke="none">
 <path d="M3915 8404 c-488 -40 -1048 -200 -1516 -434 -874 -438 -1515 -1114 -1944 -2050 -228 -498 -345 -1061 -345 -1660 -1 -528 74 -954 254 -1446 155 -427 398 -855 670 -1179 127 -152 457 -481 606 -606 587 -489 1355 -812 2165 -910 162 -19 213 -21 520 -16 297 4 362 8 513 31 762 113 1486 432 2052 904 506 422 931 983 1185 1567 116 266 240 685 291 982 54 320 58 908 9 1243 -217 1474 -1134 2668 -2497 3251 -361 155 -728 252 -1148 305 -120 15 -693 27 -815 18z m-2193 -1855 c399 -144 1102 -390 1325 -463 l141 -47 -4 -132 c-10 -268 -21 -367 -54 -477 -77 -260 -209 -640 -277 -800 -90 -211 -144 -369 -174 -510 -26 -122 -29 -258 -15 -680 7 -233 6 -294 -13 -505 -41 -466 -25 -629 85 -893 205 -490 625 -804 1179 -884 143 -20 634 -17 760 6 549 97 991 474 1159 987 69 212 87 364 66 560 -6 63 -18 409 -25 769 l-13 655 -26 88 c-25 86 -58 169 -171 437 -66 159 -323 907 -353 1030 -28 113 -37 234 -23 287 11 38 17 45 74 72 34 16 276 102 539 190 262 88 617 211 790 272 444 158 461 163 490 156 31 -8 95 -86 205 -252 383 -577 584 -1108 647 -1717 58 -551 8 -1093 -144 -1574 -112 -351 -311 -753 -525 -1059 -234 -336 -648 -740 -990 -966 -353 -233 -817 -440 -1195 -533 -334 -81 -872 -124 -1234 -97 -583 43 -1204 251 -1716 574 -500 316 -967 805 -1267 1327 -188 327 -307 626 -406 1025 -79 315 -81 339 -82 855 0 511 3 550 75 845 91 380 252 788 420 1065 151 250 345 520 375 520 8 0 177 -59 377 -131z"/>
 </g>

</svg>