<!DOCTYPE svg PUBLIC "-//W3C//DTD SVG 20010904//EN" "http://www.w3.org/TR/2001/REC-SVG-20010904/DTD/svg10.dtd">
<svg version="1.0" xmlns="http://www.w3.org/2000/svg" width="172px" height="137px" viewBox="0 0 172 137" preserveAspectRatio="xMidYMid meet">
 <g id="layer101" fill="#2e2e2e" stroke="none">
  <path d="M0 68.254 c0 -68.254 0 -68.254 86 -68.254 86 0 86 0 86 68.254 0 68.254 0 68.254 -86 68.254 -86 0 -86 0 -86 -68.254z"/>
</g>
 <g id="layer102" fill="#f4f4f4" stroke="none">
  <path d="M0 68.254 c0 -68.254 0 -68.254 86 -68.254 86 0 86 0 86 68.254 0 68.254 0 68.254 -86 68.254 -86 0 -86 0 -86 -68.254z m34.127 55.627 c0.4095 -1.0238 1.1603 -1.7063 2.0476 -1.7063 0.8873 0 1.6381 0.6825 2.0476 1.7063 0.6143 1.5698 1.0238 1.7063 4.7095 1.7063 4.9143 0 6.2111 -0.4095 6.2111 -2.1159 0 -1.9111 2.3889 -1.6381 3.6857 0.4095 0.6143 0.9556 1.4333 1.7063 1.7746 1.7063 0.4095 0 1.0921 -0.7508 1.5016 -1.7063 0.4095 -0.9556 1.2968 -1.7063 1.9111 -1.7063 0.6825 0 1.7063 0.7508 2.3206 1.7063 0.6143 0.9556 1.4333 1.7063 1.7746 1.7063 0.4095 0 1.0238 -0.7508 1.3651 -1.7063 0.3413 -0.9556 1.0921 -1.7063 1.7063 -1.7063 0.546 0 1.5016 0.7508 2.1159 1.7063 0.8873 1.2968 1.7063 1.7063 3.6857 1.7063 3.2079 0 4.6413 -1.4333 3.0714 -3.0032 -0.6143 -0.6143 -1.3651 -1.0921 -1.6381 -1.0921 -0.273 0 -0.8873 -0.7508 -1.2968 -1.6381 -0.4095 -0.8873 -1.3651 -1.8429 -2.1159 -2.1159 -1.1603 -0.3413 -1.4333 -1.0238 -1.4333 -3.1397 0 -4.0952 1.5016 -4.0952 5.3238 0 2.7984 2.9349 3.6857 3.481 5.7333 3.481 2.0476 0 2.6619 0.3413 3.4127 1.9111 0.8873 1.8429 0.8873 1.8429 9.2825 2.0476 7.1667 0.1365 8.4635 0.3413 8.8048 1.3651 0.6825 1.8429 1.6381 2.1841 6.0746 2.1841 3.754 0 4.3683 -0.2048 5.3238 -1.7063 0.6143 -0.9556 1.5016 -1.7063 2.0476 -1.7063 0.4778 0 1.2286 0.7508 1.6381 1.7063 1.0921 2.3206 2.7984 2.1159 3.754 -0.4778 0.6143 -1.7063 2.7302 -1.5016 3.5492 0.3413 0.4095 0.819 1.1603 1.5016 1.7063 1.5016 0.546 0 1.2968 -0.6825 1.7063 -1.5016 0.9556 -2.1841 3.481 -2.0476 4.027 0.1365 0.4095 1.5698 0.7508 1.7063 4.7095 1.7063 4.5048 0 5.4603 -0.3413 6.1429 -2.1841 0.546 -1.4333 3.2079 -1.6381 3.2079 -0.273 0 0.4778 0.4778 1.2968 1.0238 1.7746 0.819 0.6825 1.2286 0.6825 2.0476 0 1.4333 -1.2286 1.2968 -1.9794 -0.6825 -2.8667 -2.1841 -1.0238 -2.1841 -3.1397 0 -3.9587 0.9556 -0.3413 1.7063 -1.0921 1.7063 -1.7063 0 -1.5698 -2.5254 -2.2524 -7.4397 -2.0476 -5.5286 0.2048 -6.5524 -0.0683 -7.5079 -2.1159 -0.4095 -0.8873 -1.1603 -1.6381 -1.7746 -1.6381 -0.546 0 -1.0238 -0.273 -1.0238 -0.6825 0 -0.3413 -1.3651 -2.0476 -3.0714 -3.754 -3.0032 -2.9349 -3.2762 -3.0714 -7.0984 -3.0714 -4.6413 0 -4.846 -0.2048 -4.846 -6.0746 0 -3.5492 0.2048 -4.027 1.7063 -4.7095 1.3651 -0.6143 1.7063 -1.2968 1.7063 -3.4127 0 -2.0476 0.3413 -2.7984 1.6381 -3.481 1.1603 -0.6825 1.7063 -1.6381 1.9794 -3.6857 0.273 -1.9794 0.8873 -3.2079 2.1159 -4.0952 1.3651 -1.0238 1.7746 -1.8429 1.7746 -3.9587 0 -2.2524 0.273 -2.7984 1.7063 -3.3444 1.4333 -0.546 1.7063 -1.0921 1.7063 -3.3444 0 -2.0476 0.3413 -2.8667 1.7063 -3.754 1.5698 -1.0238 1.7063 -1.5698 1.7063 -5.8016 0 -4.2317 -0.1365 -4.7778 -1.7063 -5.8016 -1.6381 -1.0921 -1.7063 -1.3651 -1.7063 -9.2143 0 -7.9175 0 -8.054 -1.7063 -8.8048 -1.3651 -0.6143 -1.7063 -1.2968 -1.7063 -3.2079 0 -2.1159 -0.819 -3.2079 -8.327 -10.5794 -6.6889 -6.6889 -8.6683 -8.1905 -10.2381 -8.1905 -1.2968 0 -2.5254 -0.6143 -3.5492 -1.8429 -1.6381 -1.8429 -1.6381 -1.8429 -14.8111 -1.6381 -12.9683 0.2048 -13.3095 0.2048 -15.0159 1.8429 -1.0921 1.0238 -2.5254 1.6381 -3.8905 1.6381 -1.7063 0 -2.3889 0.4095 -3.0032 1.7063 -0.4095 0.9556 -1.0921 1.7063 -1.5698 1.7063 -0.4095 0 -1.4333 0.8873 -2.2524 2.0476 -1.1603 1.5016 -2.1159 2.0476 -3.6175 2.0476 -3.0032 0 -7.4397 4.4365 -7.4397 7.4397 0 1.5016 -0.4778 2.3889 -1.7063 3.2079 -1.7063 1.0921 -1.7063 1.2286 -1.7063 10.6476 0 9.4873 0 9.4873 -2.1159 11.3984 -1.9111 1.7746 -2.0476 2.1841 -1.8429 6.2111 0.1365 3.481 0.4778 4.4365 1.5698 5.0508 0.7508 0.4095 1.5016 0.819 1.7063 0.9556 0.2048 0.1365 0.4778 2.3206 0.6825 4.7778 0.273 3.8905 0.546 4.6413 1.9111 5.2556 1.1603 0.546 1.5016 1.2286 1.5016 3.1397 0 2.1159 0.546 3.0714 3.754 6.2794 2.8667 2.8667 3.754 4.2317 3.754 5.8016 0 1.4333 0.546 2.3889 1.7063 3.1397 1.5016 1.0238 1.7063 1.5698 1.7063 5.4603 0 4.9825 -0.2048 5.1873 -5.5968 5.1873 -3.3444 0 -3.481 0.0683 -8.873 5.5968 -5.4603 5.5968 -5.4603 5.5968 -11.1254 5.7333 -3.0714 0.0683 -6.0063 0.273 -6.4159 0.546 -1.2286 0.819 -0.819 2.1841 0.9556 3.1397 1.5698 0.819 2.4571 3.4127 1.1603 3.4127 -0.3413 0 -1.1603 0.4095 -1.8429 0.9556 -1.0921 0.819 -1.1603 1.0921 -0.4095 2.0476 1.2968 1.5016 2.0476 1.3651 2.7984 -0.6143z"/>
  <path d="M38.2222 120.1952 c0 -1.5016 1.4333 -2.2524 2.7302 -1.4333 1.2286 0.7508 0.273 2.7302 -1.3651 2.7302 -0.8873 0 -1.3651 -0.4778 -1.3651 -1.2968z"/>
  <path d="M46.0032 120.4683 c-0.4778 -1.2286 0.2048 -2.3889 1.4333 -2.3889 1.2286 0 1.7746 1.0238 1.2968 2.3206 -0.546 1.3651 -2.2524 1.4333 -2.7302 0.0683z"/>
  <path d="M53.0333 120.5365 c-0.6143 -1.5016 1.2968 -2.8667 2.5254 -1.7746 1.2968 1.0238 0.6825 2.7302 -0.9556 2.7302 -0.6825 0 -1.3651 -0.4095 -1.5698 -0.9556z"/>
  <path d="M60.3365 120.4683 c-0.546 -1.2968 0.819 -2.4571 2.2524 -1.9111 1.2968 0.4778 0.819 2.5254 -0.6825 2.7984 -0.6143 0.1365 -1.3651 -0.273 -1.5698 -0.8873z"/>
  <path d="M100.5381 120.4 c-0.546 -1.3651 0.6143 -2.4571 2.0476 -1.9111 1.4333 0.546 1.5016 2.0476 0.0683 2.5937 -1.5016 0.546 -1.6381 0.546 -2.1159 -0.6825z"/>
  <path d="M115.7587 120.8778 c-0.6143 -0.9556 0.273 -2.7984 1.2968 -2.7984 1.0238 0 1.9111 1.8429 1.2968 2.7984 -0.2048 0.3413 -0.7508 0.6143 -1.2968 0.6143 -0.546 0 -1.0921 -0.273 -1.2968 -0.6143z"/>
  <path d="M122.6524 120.6048 c-0.546 -1.3651 0.6143 -2.7984 1.8429 -2.3206 1.5698 0.6143 1.4333 3.2079 -0.2048 3.2079 -0.6825 0 -1.4333 -0.4095 -1.6381 -0.8873z"/>
  <path d="M129.6825 120.2635 c0 -1.7063 0.4778 -2.1159 2.1159 -1.7063 1.5698 0.4095 1.7063 1.9111 0.2048 2.5254 -1.7746 0.6825 -2.3206 0.4778 -2.3206 -0.819z"/>
  <path d="M137.6683 120.5365 c-0.4778 -1.2286 0.0683 -1.7746 1.7063 -1.7746 0.7508 0 1.2286 0.4778 1.2286 1.3651 0 1.5698 -2.3889 1.9111 -2.9349 0.4095z"/>
  <path d="M49.4159 117.0556 c-0.4778 -1.2286 0.2048 -2.3889 1.5016 -2.3889 1.3651 0 2.0476 2.0476 0.8873 2.7984 -1.3651 0.819 -1.9794 0.7508 -2.3889 -0.4095z"/>
  <path d="M56.8556 116.9873 c-0.546 -1.3651 0.6825 -2.4571 2.0476 -1.9111 1.6381 0.6143 1.4333 2.1159 -0.273 2.5254 -0.8873 0.2048 -1.5016 0 -1.7746 -0.6143z"/>
  <path d="M81.7683 116.0318 c-1.3651 -1.5698 -2.3889 -2.0476 -4.1635 -2.0476 -1.7746 0 -2.4571 -0.3413 -2.7302 -1.3651 -0.2048 -0.7508 -0.8873 -1.5698 -1.6381 -1.8429 -1.7063 -0.6143 -2.2524 -1.5698 -2.2524 -4.027 0 -1.2968 -0.6143 -2.6619 -1.7063 -3.6857 -1.3651 -1.2968 -1.7063 -2.2524 -1.7063 -5.0508 0 -3.8905 -0.3413 -4.6413 -2.5254 -5.8016 -1.3651 -0.6825 -1.5698 -1.3651 -1.5698 -5.119 0 -3.0714 -0.273 -4.573 -1.0921 -5.1873 -0.546 -0.546 -1.3651 -1.5016 -1.7063 -2.1841 -0.546 -1.0238 -0.3413 -1.3651 1.0238 -1.9111 0.8873 -0.3413 1.8429 -1.2286 2.1159 -1.9794 0.4095 -1.2968 0.9556 -1.4333 5.1873 -1.4333 4.3683 0 4.7778 -0.1365 5.4603 -1.6381 0.6143 -1.2286 1.5698 -1.7746 3.9587 -2.2524 3.1397 -0.546 3.1397 -0.546 3.3444 -3.481 0.2048 -2.3206 0.546 -3.0714 1.9111 -3.6857 1.6381 -0.7508 2.0476 -1.7063 2.4571 -5.3238 0.2048 -1.5698 0.4778 -1.7063 3.2762 -1.7063 3.0714 0 3.0714 0 3.4127 3.0714 0.273 2.5254 0.6825 3.2079 2.3206 3.9587 1.6381 0.819 1.8429 1.2286 1.5016 3.0032 -0.546 2.7984 0.546 3.9587 3.754 3.9587 2.1841 0 2.7984 0.3413 3.481 1.7063 0.9556 2.0476 1.9111 2.3206 9.0778 2.5254 5.4603 0.2048 5.4603 0.2048 5.6651 2.3889 0.1365 1.7063 -0.273 2.6619 -1.9111 4.3683 -1.9111 2.0476 -2.0476 2.5254 -1.7746 5.7333 0.3413 3.8222 0.0683 4.573 -2.1159 5.7333 -1.3651 0.6825 -1.5698 1.3651 -1.5698 4.6413 0 3.2762 -0.273 4.1635 -1.8429 5.8016 -1.0238 1.0921 -1.9111 2.7984 -1.9794 3.8222 -0.2048 3.3444 -0.273 3.5492 -1.2286 3.5492 -0.546 0 -1.6381 0.9556 -2.4571 2.0476 -0.819 1.1603 -1.8429 2.0476 -2.2524 2.0476 -0.4778 0 -1.1603 0.6825 -1.5016 1.5698 -0.6143 1.4333 -1.1603 1.5016 -8.5317 1.7063 -7.8492 0.2048 -7.8492 0.2048 -9.6921 -1.9111z m10.7159 -7.1667 c0 -1.1603 -0.4778 -1.3651 -3.0714 -1.3651 -2.6619 0 -3.0714 0.2048 -3.2762 1.5698 -0.2048 1.5016 -0.0683 1.5698 3.0714 1.3651 2.7302 -0.2048 3.2762 -0.4095 3.2762 -1.5698z m3.2762 -5.8698 c0.6143 -0.4095 1.1603 -1.0921 1.1603 -1.5698 0 -0.4778 0.7508 -1.2286 1.7063 -1.6381 0.9556 -0.4095 1.7063 -1.2286 1.7063 -1.7746 0 -0.6143 0.546 -1.3651 1.2286 -1.7063 2.6619 -1.4333 5.8016 -4.9825 6.0063 -6.7571 0.4778 -4.2317 -1.9794 -5.8016 -4.0952 -2.5254 -1.0921 1.7063 -1.0921 1.7063 -14.4016 1.7063 -13.3095 0 -13.3095 0 -14.1286 -1.7063 -1.2286 -2.7302 -3.5492 -2.0476 -3.8222 1.1603 -0.2048 2.1841 0.2048 2.9349 2.5254 5.2556 1.5698 1.5698 3.0714 2.7984 3.3444 2.7984 0.3413 0 0.9556 0.7508 1.3651 1.7063 0.4095 0.9556 1.2968 1.7063 1.8429 1.7063 0.546 0 1.3651 0.7508 1.8429 1.7063 0.4095 0.8873 1.2286 1.7746 1.8429 1.8429 2.4571 0.546 10.7159 0.3413 11.8762 -0.2048z m-3.6175 -21.9095 c0.4095 -0.4778 1.1603 -1.5016 1.7063 -2.2524 1.0238 -1.3651 1.0238 -1.2968 2.9349 0.8873 1.5016 1.7746 2.0476 2.0476 2.7302 1.3651 1.2968 -1.2968 0.9556 -2.5937 -0.819 -3.2762 -0.8873 -0.3413 -1.8429 -1.2286 -2.1159 -1.9794 -0.6143 -1.9794 -2.9349 -1.8429 -3.754 0.273 -0.819 2.2524 -1.6381 2.1841 -3.4127 -0.3413 -1.5698 -2.1841 -3.754 -2.6619 -6.2111 -1.3651 -1.7746 0.9556 -1.8429 5.7333 -0.0683 6.7571 1.6381 1.0238 8.1222 0.9556 9.0095 -0.0683z"/>
  <path d="M81.9048 98.0127 c-0.3413 -0.8873 -1.2286 -1.8429 -2.0476 -2.1159 -0.8873 -0.273 -1.3651 -0.8873 -1.2286 -1.5698 0.2048 -1.0238 1.5698 -1.1603 10.3746 -1.3651 7.5762 -0.1365 10.3063 0.0683 10.7159 0.6825 0.6143 0.9556 -0.4778 2.5937 -1.7063 2.5937 -0.4095 0 -1.0921 0.6825 -1.4333 1.5698 -0.6143 1.3651 -1.1603 1.5016 -7.3714 1.7063 -6.4841 0.2048 -6.6206 0.1365 -7.3032 -1.5016z"/>
  <path d="M119.1714 117.4651 c-0.6143 -0.9556 0.3413 -2.7984 1.3651 -2.7984 1.3651 0 2.0476 2.0476 0.8873 2.7984 -1.2286 0.7508 -1.7746 0.7508 -2.2524 0z"/>
  <path d="M126.7476 117.6016 c-0.819 -0.7508 -0.546 -2.9349 0.4095 -2.9349 1.5016 0 2.7302 1.2286 2.3206 2.3206 -0.4095 1.0921 -1.9111 1.4333 -2.7302 0.6143z"/>
  <path d="M103.8825 116.2365 c0.1365 -0.819 0.819 -1.2286 1.9111 -1.2286 2.4571 0 2.2524 1.9794 -0.2048 2.2524 -1.5698 0.2048 -1.9111 0 -1.7063 -1.0238z"/>
  <path d="M122.9254 114.0524 c-1.0921 -0.7508 -0.1365 -2.9349 1.2286 -2.6619 0.6143 0.1365 1.1603 0.6825 1.2968 1.2968 0.2048 1.2968 -1.2968 2.1159 -2.5254 1.3651z"/>
  <path d="M52.5556 112.9603 c0 -1.4333 1.8429 -2.0476 3.0714 -1.0238 1.5698 1.2968 1.2286 2.0476 -1.0238 2.0476 -1.3651 0 -2.0476 -0.3413 -2.0476 -1.0238z"/>
  <path d="M107.8413 112.5508 c0 -1.0238 0.3413 -1.3651 1.5016 -1.1603 2.3206 0.3413 2.5254 2.5937 0.273 2.5937 -1.3651 0 -1.7746 -0.3413 -1.7746 -1.4333z"/>
  <path d="M60.9508 109.4794 c-0.546 -1.4333 1.2968 -2.5937 2.0476 -1.2286 0.6143 1.0921 0.0683 2.3206 -0.9556 2.3206 -0.3413 0 -0.819 -0.4778 -1.0921 -1.0921z"/>
  <path d="M115.6905 109.8889 c-0.546 -0.8873 0.9556 -2.8667 1.7746 -2.3206 0.3413 0.2048 0.6143 0.9556 0.6143 1.7063 0 1.3651 -1.6381 1.7746 -2.3889 0.6143z"/>
  <path d="M57.4698 76.9905 c-1.3651 -1.3651 -0.9556 -2.5937 0.8873 -2.5937 1.7746 0 1.9794 0.4778 1.2968 2.3206 -0.4778 1.2968 -1.0921 1.3651 -2.1841 0.273z"/>
  <path d="M53.0333 73.3048 c-0.273 -0.273 -0.4778 -2.2524 -0.4778 -4.3683 0 -4.573 1.1603 -6.2111 3.0032 -4.3683 0.8873 0.819 1.0921 2.1159 0.9556 4.9825 -0.2048 3.2762 -0.4095 3.8222 -1.5698 4.027 -0.819 0.1365 -1.6381 0 -1.9111 -0.273z"/>
  <path d="M60.0635 72.6905 c0 -1.0921 2.3206 -2.5937 3.0032 -1.9111 0.2048 0.2048 0.4095 1.0238 0.4095 1.7063 0 0.8873 -0.4778 1.2286 -1.7063 1.2286 -1.0238 0 -1.7063 -0.4095 -1.7063 -1.0238z"/>
  <path d="M119.0349 72.9635 c-0.6825 -1.1603 1.5698 -3.1397 2.5254 -2.1841 0.4778 0.4778 0.6143 1.2968 0.4095 1.8429 -0.4778 1.2286 -2.2524 1.4333 -2.9349 0.3413z"/>
  <path d="M62.6571 67.5032 c-2.3206 -2.3889 -2.5937 -3.0714 -2.5937 -6.2794 0 -3.2079 0.273 -3.754 2.6619 -6.0746 3.2079 -3.1397 4.1635 -3.2762 4.1635 -0.4778 0 2.5254 1.0921 4.7095 2.3889 4.7095 0.4778 0 1.5698 -0.819 2.3206 -1.8429 1.4333 -1.9111 1.4333 -1.9111 2.8667 0 1.6381 2.1841 3.0714 2.3889 3.6857 0.4778 0.273 -0.8873 1.0238 -1.3651 2.1159 -1.3651 1.4333 0 1.6381 0.3413 1.6381 2.4571 0 2.1159 -0.6143 3.0714 -4.5048 6.8254 -4.4365 4.3683 -4.5048 4.3683 -8.327 4.3683 -3.6175 -0.0683 -4.027 -0.2048 -6.4159 -2.7984z"/>
  <path d="M103.9508 69.1413 c-0.546 -1.5016 -5.5286 -6.3476 -6.4159 -6.3476 -0.4095 0 -0.6143 -1.4333 -0.4778 -3.2079 0.2048 -3.2762 0.2048 -3.2762 3.3444 -3.481 2.7302 -0.2048 3.2079 0 3.5492 1.1603 0.4095 1.6381 2.6619 2.7302 3.0714 1.5698 0.1365 -0.4778 0.7508 -1.3651 1.3651 -1.9111 1.0238 -1.0238 1.2286 -0.9556 2.6619 0.819 1.2968 1.6381 1.7746 1.8429 2.7302 1.2286 0.6825 -0.4095 1.2968 -1.3651 1.4333 -2.0476 0.4778 -3.3444 0.8873 -4.3683 1.7746 -4.3683 1.2286 0 1.7746 2.1841 1.7746 7.5079 0 4.3 -0.1365 4.6413 -2.6619 7.3714 -2.6619 2.7984 -2.7984 2.8667 -7.2349 2.8667 -3.6175 0 -4.573 -0.2048 -4.9143 -1.1603z"/>
  <path d="M122.5841 69.2095 c-1.0921 -2.7984 0.4778 -6.5524 2.1841 -5.4603 0.8873 0.546 1.5698 4.2317 1.0921 5.5286 -0.546 1.3651 -2.7302 1.2968 -3.2762 -0.0683z"/>
  <path d="M49.6206 62.3841 c-0.819 -0.8873 -0.546 -4.846 0.4778 -5.6651 1.3651 -1.1603 2.5937 0.6825 2.3206 3.481 -0.2048 2.1159 -1.7063 3.2762 -2.7984 2.1841z"/>
  <path d="M126.2698 59.7905 c0 -3.3444 0.819 -4.4365 2.4571 -3.0714 0.6825 0.546 0.9556 1.7063 0.819 3.2762 -0.1365 1.9794 -0.546 2.5254 -1.7063 2.6619 -1.4333 0.2048 -1.5698 -0.0683 -1.5698 -2.8667z"/>
  <path d="M104.5651 54.1254 c0.1365 -0.6825 0.6825 -1.2286 1.2286 -1.2286 0.546 0 1.0921 0.546 1.2286 1.2286 0.1365 0.819 -0.2048 1.1603 -1.2286 1.1603 -1.0238 0 -1.3651 -0.3413 -1.2286 -1.1603z"/>
  <path d="M82.1778 50.1667 c-1.0921 -1.7063 -1.2286 -1.7063 -10.7841 -1.7063 -9.6238 0 -11.3302 -0.3413 -11.3302 -2.4571 0 -0.4778 0.6825 -0.9556 1.5016 -1.0921 3.0032 -0.4095 3.481 -6.8254 0.546 -7.5762 -1.7746 -0.4778 -1.7746 -2.1841 0 -3.4127 0.819 -0.6143 1.6381 -2.1841 1.9111 -3.8905 0.6143 -3.481 1.8429 -4.2317 2.9349 -1.7746 1.0238 2.2524 2.8667 2.2524 4.3 0.0683 0.819 -1.2968 1.7063 -1.7063 3.481 -1.7063 1.7746 0 2.6619 -0.4095 3.481 -1.7063 1.3651 -2.1159 3.1397 -2.1841 4.027 -0.1365 0.6143 1.3651 1.2286 1.5016 6.9619 1.7063 6.0746 0.2048 6.3476 0.1365 7.4397 -1.5698 0.819 -1.2286 1.7063 -1.7063 3.2762 -1.7063 2.4571 0 3.4127 -0.546 4.027 -2.1841 0.6825 -1.8429 1.9111 -1.5016 4.7778 1.2286 1.8429 1.7063 2.5254 3.0032 2.5254 4.4365 0 1.5698 0.819 2.8667 3.6857 5.5968 3.5492 3.481 3.6175 3.6175 3.754 7.6444 0.0683 2.2524 0.3413 4.1635 0.6825 4.3 0.273 0.0683 1.1603 0.6143 1.8429 1.0921 1.0238 0.819 1.0921 1.0921 0.3413 2.0476 -0.7508 0.9556 -2.6619 1.0921 -12.4222 1.0921 -11.5349 0 -11.5349 0 -12.627 1.7063 -1.0238 1.6381 -1.4333 1.7063 -7.1667 1.7063 -5.6651 0 -6.0746 -0.0683 -7.1667 -1.7063z"/>
  <path d="M56.9921 50.4397 c-0.546 -0.819 0.9556 -2.1159 2.0476 -1.7746 0.4095 0.1365 0.6825 0.6825 0.6825 1.2286 0 1.1603 -2.1159 1.6381 -2.7302 0.546z"/>
  <path d="M57.1286 43.8873 c-0.8873 -0.819 -0.4778 -4.7778 0.546 -5.6651 1.5016 -1.2968 2.3889 -0.2048 2.3889 3.1397 0 2.4571 -0.2048 3.0032 -1.2286 3.0032 -0.6825 0 -1.5016 -0.2048 -1.7063 -0.4778z"/>
  <path d="M67.8444 21.5 c-0.4095 -1.0238 0.1365 -2.3889 0.9556 -2.3889 0.273 0 0.8873 0.273 1.4333 0.6143 0.819 0.546 0.819 0.819 0.1365 1.7063 -1.1603 1.3651 -2.0476 1.3651 -2.5254 0.0683z"/>
  <path d="M82.0413 21.0222 c0.4778 -1.3651 3.2762 -1.5698 3.2762 -0.273 0 0.7508 -0.6143 1.0921 -1.7746 1.0921 -1.0921 0 -1.6381 -0.3413 -1.5016 -0.819z"/>
  <path d="M90.027 18.019 c-0.6825 -0.8873 -0.6825 -1.1603 0.1365 -1.7063 1.2286 -0.7508 2.2524 -0.4095 2.5254 0.8873 0.273 1.5016 -1.6381 2.0476 -2.6619 0.819z"/>
</g>

</svg>