<!DOCTYPE svg PUBLIC "-//W3C//DTD SVG 20010904//EN" "http://www.w3.org/TR/2001/REC-SVG-20010904/DTD/svg10.dtd">
<svg version="1.0" xmlns="http://www.w3.org/2000/svg" width="32px" height="32px" viewBox="0 0 320 320" preserveAspectRatio="xMidYMid meet">
<g id="layer101" fill="#383838" stroke="none">
 <path d="M10 305 l-12 -15 25 0 25 0 6 -15 5 -15 -11 0 -11 0 5 -6 6 -6 21 12 21 11 0 -12 c0 -6 -10 -27 -21 -46 l-21 -34 6 -6 6 -6 0 11 0 12 14 0 14 0 6 33 c4 17 8 41 9 53 l2 21 30 1 c17 1 42 -1 58 -4 l27 -6 0 -8 c0 -16 40 -103 45 -98 3 3 -1 18 -10 34 -8 16 -15 35 -15 42 l0 13 19 -11 c11 -5 23 -10 28 -10 l8 0 -14 9 -14 9 7 11 7 11 22 0 21 0 -17 18 -18 17 -14 -19 -15 -19 -17 15 -18 16 -61 -2 -62 -2 -15 -13 -16 -13 -11 7 -10 6 5 10 6 9 -19 0 -20 0 -12 -15z"/>
 <path d="M78 165 l-12 -26 -13 5 -13 5 0 -9 c0 -5 5 -12 11 -16 l11 -6 -6 -24 -6 -24 35 -35 36 -35 61 3 61 3 34 39 33 38 -6 6 -7 6 -4 -13 c-7 -20 -55 -73 -60 -68 -3 3 6 19 20 35 l25 30 -5 20 -5 19 11 6 c6 4 11 11 11 16 l0 9 -13 -5 -13 -5 -12 26 -12 25 -15 0 -15 0 0 -9 0 -9 20 -5 20 -5 0 -14 0 -14 -35 -1 -35 -1 0 8 0 7 -27 -3 c-16 -2 -37 -5 -47 -7 l-19 -2 -4 13 -5 13 21 6 21 5 0 9 0 9 -15 0 -15 0 -12 -25z m138 -45 l34 0 0 -15 c0 -9 -7 -26 -16 -40 l-15 -24 -27 9 c-15 5 -34 9 -42 8 -8 -1 -25 0 -37 0 l-23 2 0 15 0 15 -10 0 -9 0 5 14 6 15 36 4 c21 2 43 2 50 0 8 -2 29 -3 48 -3z"/>
 </g>
<g id="layer102" fill="#cecece" stroke="none">
 <path d="M55 311 l-5 -10 11 -6 11 -7 16 16 16 16 -21 0 -22 0 -6 -9z"/>
 <path d="M240 305 c7 -8 16 -15 20 -15 4 0 10 7 14 15 l5 15 -26 0 -25 0 12 -15z"/>
 <path d="M103 276 c-1 -12 -5 -36 -9 -54 l-7 -34 -18 5 -19 5 6 -10 7 -10 -13 -8 -13 -8 7 -11 c11 -17 22 -13 34 14 l12 25 15 0 15 0 0 -9 0 -9 -21 -5 -21 -6 5 -13 4 -13 19 2 c10 2 31 5 47 7 l27 3 0 -7 0 -8 35 1 35 1 0 14 0 14 -20 5 -20 5 0 9 0 9 15 0 15 0 12 -25 c12 -26 23 -31 33 -15 l6 10 -11 0 -11 0 5 9 6 9 -14 5 -13 5 -19 51 -18 50 -25 5 c-14 3 -39 5 -56 4 l-30 -1 -2 -21z"/>
 <path d="M40 111 l0 -21 10 0 10 0 0 14 c0 8 -4 18 -10 21 l-10 6 0 -20z"/>
 <path d="M118 123 l-36 -4 -6 -15 -5 -14 9 0 10 0 0 -15 0 -15 23 -2 c12 0 29 -1 37 0 8 1 27 -3 42 -8 l27 -9 15 24 c9 14 16 31 16 40 l0 15 -34 0 c-19 0 -40 1 -48 3 -7 2 -29 2 -50 0z"/>
 <path d="M277 124 c-4 -4 -7 -14 -7 -23 l0 -15 11 11 11 11 -4 12 -3 11 -8 -7z"/>
 </g>

</svg>