<!DOCTYPE svg PUBLIC "-//W3C//DTD SVG 20010904//EN" "http://www.w3.org/TR/2001/REC-SVG-20010904/DTD/svg10.dtd">
<svg version="1.0" xmlns="http://www.w3.org/2000/svg" width="142px" height="142px" viewBox="0 0 1420 1420" preserveAspectRatio="xMidYMid meet">
<g id="layer101" fill="#0f0e0f" stroke="none">
 <path d="M174 1380 c-59 -33 -114 -93 -146 -159 -19 -38 -23 -62 -22 -137 1 -134 13 -154 229 -370 99 -100 196 -193 216 -207 48 -36 149 -61 215 -53 175 20 294 169 192 240 -34 24 -82 19 -146 -15 -74 -40 -114 -36 -179 19 -90 75 -314 312 -329 348 -36 85 37 174 141 174 29 0 49 -14 137 -96 142 -133 129 -127 224 -109 102 20 114 24 114 39 0 18 -132 158 -230 244 -119 104 -137 112 -262 112 -96 0 -107 -2 -154 -30z"/>
 <path d="M732 958 c-108 -17 -212 -95 -212 -159 0 -37 56 -99 90 -99 11 0 52 16 91 36 96 50 116 45 227 -55 123 -111 256 -250 276 -288 45 -89 -19 -193 -120 -193 -50 0 -68 13 -190 133 -92 89 -92 89 -170 72 -44 -9 -89 -19 -101 -21 -13 -3 -23 -12 -23 -21 0 -10 66 -83 148 -163 181 -179 208 -195 337 -194 112 1 175 25 239 94 73 78 86 113 86 232 0 97 -2 106 -31 157 -35 61 -337 370 -409 418 -73 49 -148 65 -238 51z"/>
 </g>

</svg>