<!DOCTYPE svg PUBLIC "-//W3C//DTD SVG 20010904//EN" "http://www.w3.org/TR/2001/REC-SVG-20010904/DTD/svg10.dtd">
<svg version="1.0" xmlns="http://www.w3.org/2000/svg" width="1200px" height="992px" viewBox="0 0 12000 9920" preserveAspectRatio="xMidYMid meet">
<g id="layer101" fill="#050505" stroke="none">
 <path d="M215 9836 c-29 -15 -61 -42 -75 -63 l-25 -37 -3 -4275 c-2 -2352 0 -4314 4 -4360 6 -82 7 -84 50 -127 l43 -44 218 -1 c120 -1 279 -4 353 -8 l135 -6 5 -375 6 -375 24 -37 c14 -20 43 -47 65 -60 l40 -22 1360 -1 c1518 0 1384 -6 1454 71 l35 37 7 221 c4 122 8 294 8 384 l1 162 838 0 c461 0 1514 3 2340 7 l1501 6 23 21 c13 12 36 36 51 54 l27 34 0 602 0 603 1588 7 c1810 8 1634 -2 1640 97 2 29 -1 62 -7 74 -5 11 -18 40 -29 65 -11 25 -38 87 -61 138 -23 50 -41 94 -41 97 0 2 -11 28 -24 57 -28 62 -62 139 -82 186 -8 17 -20 47 -28 65 -25 55 -86 198 -128 297 -44 104 -70 164 -99 224 -11 22 -19 43 -19 47 0 4 -14 38 -31 76 -17 37 -39 86 -49 108 -9 22 -27 61 -39 87 -11 26 -33 78 -48 115 -14 38 -29 73 -34 78 -4 6 -23 48 -42 95 -51 123 -134 317 -163 377 -13 28 -24 55 -24 58 0 3 -12 32 -26 63 -14 31 -37 81 -50 110 -13 29 -24 55 -24 57 0 3 -10 27 -21 53 -42 92 -58 129 -119 272 -34 80 -68 159 -75 175 -7 17 -25 56 -39 87 -14 31 -26 59 -26 62 0 3 -13 34 -29 68 -16 35 -64 144 -106 243 -42 99 -88 204 -101 233 -13 29 -24 55 -24 57 0 2 -12 30 -26 62 -14 32 -30 67 -34 78 -5 11 -17 40 -28 65 -11 25 -30 67 -42 93 -11 27 -62 144 -112 260 -49 117 -101 236 -114 265 -13 29 -24 55 -24 57 0 2 -12 30 -26 62 -63 140 -74 164 -74 168 0 2 -12 30 -26 61 -28 61 -73 166 -136 314 -44 104 -70 164 -99 224 -11 22 -19 43 -19 47 0 4 -16 42 -35 83 -19 42 -35 78 -35 81 0 2 -12 30 -26 62 -15 32 -32 72 -39 88 -25 57 -87 200 -115 266 -15 36 -34 81 -43 100 -47 106 -65 148 -77 179 -7 19 -17 40 -21 45 -4 6 -23 48 -42 95 -19 47 -61 144 -92 215 -31 72 -68 157 -82 190 -13 33 -35 83 -48 110 -12 28 -35 79 -50 115 -113 273 -152 332 -243 372 l-47 20 -4160 5 -4160 5 -50 -26z m8302 -287 c7 -6 13 -18 13 -25 0 -8 5 -14 10 -14 6 0 10 -11 10 -24 0 -14 5 -28 10 -31 5 -3 10 -15 10 -26 0 -11 7 -22 15 -25 8 -4 15 -17 15 -30 0 -13 5 -24 10 -24 6 0 10 -11 10 -24 0 -14 5 -28 10 -31 6 -3 10 -15 10 -26 0 -11 7 -22 15 -25 8 -4 15 -17 15 -29 0 -13 5 -27 10 -30 6 -3 10 -17 10 -30 0 -13 3 -25 8 -27 4 -1 15 -21 26 -43 10 -22 22 -48 27 -57 5 -10 9 -25 9 -33 0 -8 11 -33 25 -55 14 -22 25 -46 25 -54 0 -8 5 -18 10 -21 6 -3 10 -17 10 -29 0 -13 7 -29 15 -36 8 -7 15 -21 15 -31 0 -10 5 -21 10 -24 6 -3 10 -15 10 -26 0 -10 5 -19 10 -19 6 0 10 -11 10 -24 0 -13 7 -29 15 -36 8 -7 15 -19 15 -26 0 -8 4 -22 9 -32 5 -9 13 -28 19 -42 5 -14 21 -50 36 -80 14 -30 26 -63 26 -73 0 -9 5 -17 10 -17 6 0 10 -6 10 -14 0 -7 11 -34 25 -60 14 -26 25 -56 25 -67 0 -10 5 -19 10 -19 6 0 10 -8 10 -17 0 -10 11 -38 25 -62 14 -23 25 -49 25 -56 0 -8 16 -44 35 -82 19 -37 35 -74 35 -81 0 -7 4 -20 10 -30 9 -17 54 -119 70 -157 4 -11 19 -45 34 -75 14 -30 26 -63 26 -73 0 -9 5 -17 10 -17 6 0 10 -6 10 -13 0 -7 11 -37 25 -65 14 -29 25 -59 25 -67 0 -8 5 -15 10 -15 6 0 10 -6 10 -13 0 -7 11 -37 25 -65 14 -29 25 -56 25 -62 0 -6 4 -18 9 -28 13 -25 62 -134 71 -157 4 -11 20 -47 35 -80 29 -64 33 -74 62 -147 10 -27 21 -48 26 -48 4 0 7 -7 7 -15 0 -8 4 -23 9 -33 5 -9 18 -38 28 -64 10 -27 21 -48 26 -48 4 0 7 -7 7 -15 0 -8 4 -23 9 -33 12 -22 33 -76 33 -82 0 -3 6 -16 13 -30 18 -34 55 -118 56 -127 0 -5 7 -19 14 -33 22 -42 45 -97 45 -109 0 -6 5 -11 12 -11 6 0 8 -3 5 -6 -4 -4 0 -19 7 -33 19 -36 34 -72 41 -98 4 -13 11 -23 16 -23 5 0 9 -11 9 -25 0 -14 5 -25 10 -25 6 0 10 -9 10 -19 0 -11 12 -43 26 -73 24 -48 30 -62 48 -108 3 -8 10 -22 15 -30 8 -14 24 -51 41 -95 5 -11 11 -27 14 -35 3 -8 10 -22 14 -30 24 -42 32 -62 32 -80 0 -11 6 -23 14 -26 8 -3 13 -11 10 -19 -3 -7 2 -19 10 -28 9 -9 16 -25 16 -36 0 -12 5 -21 10 -21 6 0 10 -11 10 -25 0 -14 6 -28 13 -31 7 -2 14 -14 14 -27 1 -12 7 -23 13 -25 5 -2 10 -15 10 -28 0 -13 5 -24 10 -24 6 0 10 -11 10 -25 0 -14 4 -25 9 -25 5 0 12 -10 16 -22 3 -13 10 -33 16 -45 11 -28 25 -62 33 -83 3 -8 10 -22 14 -30 24 -42 32 -62 32 -80 0 -11 5 -20 10 -20 6 0 10 -8 10 -19 0 -10 7 -24 15 -31 8 -7 15 -21 15 -31 0 -10 5 -21 10 -24 6 -3 10 -15 10 -25 0 -11 11 -39 25 -64 14 -25 25 -52 25 -60 0 -9 5 -16 10 -16 6 0 10 -9 10 -19 0 -11 11 -41 25 -67 14 -26 25 -53 25 -60 0 -8 5 -14 10 -14 6 0 10 -9 10 -19 0 -11 12 -43 26 -73 15 -29 30 -62 34 -73 4 -11 20 -47 35 -80 15 -33 31 -69 35 -80 13 -33 41 -98 61 -139 11 -22 19 -44 19 -49 0 -5 11 -31 25 -59 14 -27 25 -56 25 -64 0 -8 5 -14 10 -14 6 0 10 -7 10 -15 0 -8 12 -40 26 -72 14 -32 30 -67 34 -78 4 -11 20 -47 35 -80 27 -58 39 -87 55 -130 4 -11 20 -47 35 -80 15 -33 32 -71 38 -85 5 -14 15 -38 22 -55 7 -16 17 -41 23 -55 5 -14 22 -52 37 -85 15 -33 30 -69 35 -80 4 -11 20 -47 35 -80 16 -33 31 -69 35 -80 4 -11 20 -47 35 -80 15 -33 32 -71 37 -85 6 -14 14 -33 19 -42 5 -10 9 -34 9 -53 l0 -35 -3937 1 c-2166 1 -3949 4 -3962 8 -26 7 -28 10 -64 91 -14 30 -34 76 -46 102 -11 26 -21 50 -21 53 0 2 -11 28 -24 57 -56 125 -96 218 -96 222 0 2 -16 39 -35 80 -19 42 -35 78 -35 80 0 3 -16 39 -35 80 -19 42 -35 78 -35 80 0 3 -13 33 -29 68 -16 35 -41 92 -56 128 -15 36 -33 79 -40 95 -8 17 -35 79 -60 140 -26 60 -55 130 -67 155 -29 66 -53 119 -77 172 -11 26 -21 51 -21 55 0 5 -11 30 -25 57 -14 27 -25 53 -25 58 0 5 -16 41 -35 81 -19 39 -35 75 -35 79 0 4 -12 33 -26 65 -15 32 -32 72 -39 88 -42 97 -59 136 -82 185 -27 58 -30 67 -60 142 -10 27 -21 48 -25 48 -5 0 -8 11 -8 25 0 14 -4 25 -10 25 -5 0 -10 8 -10 17 0 10 -11 41 -25 70 -35 73 -76 164 -85 188 -4 11 -19 45 -34 75 -14 30 -26 63 -26 73 0 9 -4 17 -10 17 -5 0 -10 9 -10 20 0 11 -11 38 -25 60 -14 22 -25 49 -25 60 0 11 -4 20 -10 20 -5 0 -10 7 -10 15 0 8 -11 38 -25 67 -14 28 -25 58 -25 65 0 7 -4 13 -10 13 -5 0 -10 7 -10 15 0 8 -11 38 -25 67 -14 28 -25 60 -25 70 0 10 -4 18 -10 18 -5 0 -10 6 -10 13 0 7 -8 31 -19 53 -10 21 -25 55 -34 74 -8 19 -24 57 -36 84 -12 27 -31 69 -41 95 -10 25 -30 73 -45 106 -15 33 -35 78 -45 100 -9 22 -27 61 -39 87 -11 26 -21 51 -21 54 0 3 -16 39 -35 80 -19 40 -35 76 -35 80 0 3 -16 40 -35 81 -19 41 -35 77 -35 79 0 5 -150 353 -186 432 -13 29 -24 54 -24 57 0 2 -13 32 -29 67 -34 74 -181 417 -181 423 0 2 -16 38 -35 79 -19 42 -35 78 -35 81 0 2 -12 30 -26 62 -14 32 -29 67 -33 78 -5 11 -20 47 -36 80 -15 33 -31 69 -35 80 -5 11 -20 47 -35 80 -15 33 -32 71 -37 85 -6 14 -16 39 -23 55 -7 17 -21 48 -30 70 -9 22 -25 58 -35 80 -9 22 -25 58 -35 80 -27 63 -50 115 -79 178 -14 32 -26 64 -26 72 0 8 -4 15 -8 15 -4 0 -14 20 -21 46 -7 25 -20 51 -27 59 -8 7 -14 23 -14 34 0 12 -4 21 -10 21 -5 0 -10 11 -10 24 0 13 -7 29 -15 36 -9 7 -13 15 -11 18 3 3 -1 17 -8 31 -39 74 -57 137 -42 152 2 2 1783 3 3957 1 2888 -1 3956 -5 3966 -13z m-8008 -569 c17 -43 97 -232 125 -293 14 -32 26 -60 26 -62 0 -2 12 -30 26 -62 32 -69 56 -123 79 -178 9 -22 23 -53 31 -70 14 -30 45 -104 136 -320 28 -66 53 -124 57 -130 4 -5 14 -26 21 -45 7 -19 24 -60 37 -90 14 -30 28 -64 33 -75 4 -11 17 -40 28 -65 11 -25 28 -63 37 -85 9 -22 23 -53 31 -70 21 -45 89 -206 141 -330 25 -60 48 -114 52 -120 4 -5 14 -26 21 -45 8 -19 29 -68 47 -108 18 -39 33 -75 33 -79 0 -4 9 -25 19 -47 28 -60 51 -112 136 -311 43 -99 90 -208 106 -243 16 -35 29 -65 29 -67 0 -3 11 -29 25 -59 14 -30 25 -57 25 -60 0 -3 16 -40 35 -82 19 -41 35 -77 35 -79 0 -3 14 -34 30 -70 17 -37 41 -92 54 -123 23 -53 81 -189 111 -257 7 -16 19 -46 28 -65 8 -19 24 -55 36 -80 20 -44 66 -151 176 -410 77 -182 104 -242 120 -272 8 -14 15 -31 15 -37 0 -6 14 -41 31 -78 17 -38 37 -81 44 -98 7 -16 20 -48 30 -69 10 -22 30 -69 45 -105 16 -36 54 -124 85 -196 31 -71 70 -161 86 -200 16 -38 33 -78 39 -88 6 -9 23 -50 39 -90 16 -39 43 -103 61 -142 18 -38 41 -92 52 -120 11 -27 31 -74 45 -105 14 -30 33 -75 43 -100 10 -25 32 -76 50 -115 18 -38 46 -104 62 -145 16 -41 33 -79 37 -85 4 -5 14 -26 21 -45 7 -19 25 -62 40 -95 15 -33 45 -100 65 -148 42 -97 89 -153 159 -185 41 -20 84 -20 2454 -27 l2412 -8 0 -487 0 -487 -2337 -7 c-1741 -6 -2341 -11 -2357 -19 -32 -18 -57 -48 -77 -92 -17 -37 -19 -71 -19 -397 l0 -358 -1139 0 c-835 0 -1142 3 -1147 11 -4 6 -9 178 -12 382 l-5 371 -46 46 -47 47 -123 6 c-68 4 -224 7 -346 7 l-222 0 -7 37 c-3 21 -6 1767 -6 3881 0 3828 0 3842 20 3830 11 -7 24 -24 29 -38z"/>
 </g>

</svg>