<!DOCTYPE svg PUBLIC "-//W3C//DTD SVG 20010904//EN" "http://www.w3.org/TR/2001/REC-SVG-20010904/DTD/svg10.dtd">
<svg version="1.0" xmlns="http://www.w3.org/2000/svg" width="656px" height="455px" viewBox="0 0 6560 4550" preserveAspectRatio="xMidYMid meet">
<g id="layer101" fill="#000000" stroke="none">
 <path d="M150 4280 c-20 -20 -20 -33 -20 -1880 l0 -1859 22 -21 c20 -18 35 -20 170 -20 l148 0 0 -159 c0 -145 2 -161 21 -185 l20 -26 595 0 c581 0 594 0 614 20 18 18 20 33 20 185 l0 165 1680 0 1681 0 24 25 25 24 0 261 0 260 679 0 c592 0 680 2 691 15 10 13 -100 276 -650 1548 -365 842 -674 1555 -687 1584 -44 92 227 83 -2552 83 -2448 0 -2461 0 -2481 -20z"/>
 </g>
<g id="layer102" fill="#ffffff" stroke="none">
 <path d="M340 4163 c0 -5 288 -672 639 -1483 l638 -1475 2368 -3 c1893 -2 2366 0 2362 10 -7 19 -1253 2898 -1268 2931 l-12 27 -2364 0 c-1299 0 -2363 -3 -2363 -7z"/>
 <path d="M270 2306 l0 -1655 156 -3 c205 -4 194 8 194 -214 l0 -164 488 2 487 3 3 167 c2 167 3 167 29 187 26 21 26 21 1700 21 l1673 0 -2 208 -3 207 -1715 3 -1715 2 -27 23 c-21 17 -168 349 -638 1434 -335 776 -610 1417 -610 1422 0 6 -4 11 -10 11 -7 0 -10 -558 -10 -1654z"/>
 </g>

</svg>