<!DOCTYPE svg PUBLIC "-//W3C//DTD SVG 20010904//EN" "http://www.w3.org/TR/2001/REC-SVG-20010904/DTD/svg10.dtd">
<svg version="1.0" xmlns="http://www.w3.org/2000/svg" width="183px" height="249px" viewBox="0 0 1830 2490" preserveAspectRatio="xMidYMid meet">
<g id="layer101" fill="#000000" stroke="none">
 <path d="M22 1253 l3 -1198 556 -3 557 -2 321 320 321 319 0 881 0 880 -880 0 -880 0 2 -1197z m1682 1141 l16 -6 0 -814 0 -814 -320 0 -320 0 0 -302 0 -303 -6 -23 -6 -22 -492 2 -491 3 -3 1137 -2 1137 17 4 c10 3 372 5 805 6 l786 1 16 -6z m-27 -1710 l4 -12 -261 -261 -261 -262 -12 4 -12 4 -3 258 -2 258 11 13 12 14 260 -2 260 -3 4 -11z"/>
 </g>

</svg>