<!DOCTYPE svg PUBLIC "-//W3C//DTD SVG 20010904//EN" "http://www.w3.org/TR/2001/REC-SVG-20010904/DTD/svg10.dtd">
<svg version="1.0" xmlns="http://www.w3.org/2000/svg" width="820px" height="690px" viewBox="0 0 8200 6900" preserveAspectRatio="xMidYMid meet">
<g id="layer101" fill="#020202" stroke="none">
 <path d="M249 6721 c-56 -4 -95 -12 -112 -24 l-27 -17 0 -2761 0 -2761 41 -49 41 -49 1008 0 1008 0 6 -217 c9 -317 11 -324 57 -383 l39 -50 1528 0 1527 0 537 538 537 537 3 100 3 100 235 7 c329 11 367 21 389 105 5 21 13 183 17 361 l7 322 151 1 c83 0 291 4 463 8 338 8 349 10 375 67 16 34 6 85 -88 484 -144 613 -824 3324 -880 3508 -29 97 -65 144 -126 163 -36 11 -611 14 -3348 15 -1818 0 -3344 -2 -3391 -5z m6586 -318 c19 -48 905 -3586 900 -3592 -8 -8 -6351 -8 -6359 0 -11 11 -906 3560 -906 3592 0 16 216 17 3179 17 3018 0 3179 -1 3186 -17z m-6102 -2343 c297 -1170 362 -1411 397 -1480 31 -60 79 -78 237 -90 71 -5 221 -10 334 -10 113 0 274 -3 357 -7 l152 -6 0 -544 0 -543 -890 0 -890 0 0 1723 c0 1467 5 2097 16 2085 1 -2 130 -509 287 -1128z m5377 -1968 l0 -379 -422 -9 c-467 -11 -462 -10 -510 -76 -22 -31 -23 -43 -30 -283 -3 -137 -7 -332 -7 -432 l-1 -183 -1300 0 -1300 0 0 870 0 870 1785 0 1785 0 0 -378z m650 153 l0 -225 -155 0 -155 0 0 225 0 225 155 0 155 0 0 -225z m-910 -887 c0 -13 -347 -358 -360 -358 -14 0 -20 63 -20 216 l0 154 190 0 c145 0 190 -3 190 -12z"/>
 </g>

</svg>