<!DOCTYPE svg PUBLIC "-//W3C//DTD SVG 20010904//EN" "http://www.w3.org/TR/2001/REC-SVG-20010904/DTD/svg10.dtd">
<svg version="1.0" xmlns="http://www.w3.org/2000/svg" width="128px" height="128px" viewBox="0 0 1280 1280" preserveAspectRatio="xMidYMid meet">
<g id="layer101" fill="#010101" stroke="none">
 <path d="M632 1260 c-84 -38 -130 -79 -218 -197 -50 -69 -147 -178 -230 -260 -164 -165 -184 -189 -184 -233 0 -46 47 -90 97 -90 51 0 142 45 231 114 40 31 74 56 77 56 3 0 5 -133 5 -296 l0 -296 29 -29 c39 -39 96 -40 140 -3 l31 26 0 209 c0 210 12 280 23 126 6 -101 10 -110 51 -132 42 -23 94 -14 126 20 20 21 24 38 28 110 3 47 8 85 13 85 5 0 9 -15 9 -33 0 -48 39 -82 94 -82 56 0 93 25 106 74 l11 40 36 -24 c20 -14 48 -25 62 -25 32 0 86 32 101 59 7 14 10 127 9 343 l-1 323 -47 46 c-87 84 -107 89 -347 88 -183 0 -214 -3 -252 -19z"/>
 </g>

</svg>