<!DOCTYPE svg PUBLIC "-//W3C//DTD SVG 20010904//EN" "http://www.w3.org/TR/2001/REC-SVG-20010904/DTD/svg10.dtd">
<svg version="1.0" xmlns="http://www.w3.org/2000/svg" width="155px" height="125px" viewBox="0 0 1550 1250" preserveAspectRatio="xMidYMid meet">
<g id="layer101" fill="#100f10" stroke="none">
 <path d="M274 1220 c-12 -4 -25 -17 -29 -27 -4 -10 -10 -116 -13 -236 l-5 -219 56 -52 c107 -101 467 -391 486 -391 10 0 134 94 275 210 l257 210 -3 242 c-2 182 -6 245 -16 255 -9 10 -65 14 -207 16 l-195 3 0 -175 0 -176 -110 0 -110 0 0 175 0 175 -182 -1 c-101 0 -192 -4 -204 -9z"/>
 <path d="M94 736 c-11 -8 -33 -33 -49 -56 l-29 -42 31 -27 c355 -301 668 -555 696 -564 37 -13 79 8 185 94 60 49 113 89 116 89 3 0 6 -33 6 -74 0 -102 5 -106 135 -106 85 0 104 3 109 16 3 9 6 98 6 199 l0 183 95 81 c122 105 125 109 84 166 -17 24 -38 46 -46 50 -19 7 -94 -50 -412 -316 l-252 -210 -232 194 c-227 190 -410 337 -418 337 -3 0 -14 -6 -25 -14z"/>
 </g>

</svg>