<!DOCTYPE svg PUBLIC "-//W3C//DTD SVG 20010904//EN" "http://www.w3.org/TR/2001/REC-SVG-20010904/DTD/svg10.dtd">
<svg version="1.0" xmlns="http://www.w3.org/2000/svg" width="180px" height="162px" viewBox="0 0 1800 1620" preserveAspectRatio="xMidYMid meet">
<g id="layer101" fill="#020203" stroke="none">
 <path d="M93 1553 l-31 -4 -7 -112 c-9 -153 -2 -1353 8 -1364 11 -11 1663 -11 1674 0 11 11 11 1463 0 1474 -9 8 -1582 14 -1644 6z m674 -203 c39 -68 69 -128 67 -132 -8 -12 -307 -278 -310 -275 -1 1 -81 122 -178 270 l-176 267 263 -2 262 -3 72 -125z m863 120 c0 -6 -80 -148 -177 -318 -97 -169 -187 -326 -201 -349 -13 -24 -28 -45 -32 -48 -5 -3 -20 11 -33 32 -59 94 -380 658 -385 675 -4 17 12 18 412 18 273 0 416 -3 416 -10z m-1312 -361 c96 -143 180 -263 188 -266 18 -6 84 43 234 177 63 56 123 106 132 111 19 10 9 25 153 -226 167 -289 183 -308 220 -261 11 14 108 176 215 361 157 270 196 330 202 312 3 -12 6 -282 7 -599 l1 -578 -770 0 -770 0 0 615 c0 338 3 615 8 615 4 -1 85 -118 180 -261z"/>
 <path d="M755 675 c-70 -25 -105 -91 -92 -173 8 -46 59 -96 115 -113 37 -11 45 -9 88 12 67 33 89 67 88 135 -1 109 -97 177 -199 139z"/>
 </g>

</svg>