<!DOCTYPE svg PUBLIC "-//W3C//DTD SVG 20010904//EN" "http://www.w3.org/TR/2001/REC-SVG-20010904/DTD/svg10.dtd">
<svg version="1.0" xmlns="http://www.w3.org/2000/svg" width="79px" height="82px" viewBox="0 0 790 820" preserveAspectRatio="xMidYMid meet">
<g id="layer101" fill="#010101" stroke="none">
 <path d="M3 763 c4 -21 23 -72 43 -113 34 -67 64 -101 324 -364 l287 -289 38 6 c54 9 75 32 75 81 0 34 -8 51 -41 91 -73 89 -371 396 -467 481 -91 81 -197 144 -243 144 -19 0 -21 -4 -16 -37z"/>
 </g>
<g id="layer102" fill="#fefefe" stroke="none">
 <path d="M86 688 c3 -13 12 -33 18 -45 14 -27 534 -571 558 -584 24 -13 58 6 58 32 0 25 -541 574 -592 600 -47 24 -51 24 -42 -3z"/>
 <path d="M400 518 c74 -76 136 -138 137 -138 8 0 -7 15 -134 140 l-138 135 135 -137z"/>
 <path d="M645 260 c27 -27 51 -50 54 -50 3 0 -17 23 -44 50 -27 28 -51 50 -54 50 -3 0 17 -22 44 -50z"/>
 </g>

</svg>