<!DOCTYPE svg PUBLIC "-//W3C//DTD SVG 20010904//EN" "http://www.w3.org/TR/2001/REC-SVG-20010904/DTD/svg10.dtd">
<svg version="1.0" xmlns="http://www.w3.org/2000/svg" width="180px" height="162px" viewBox="0 0 1800 1620" preserveAspectRatio="xMidYMid meet">
<g id="layer101" fill="#030304" stroke="none">
 <path d="M93 1553 l-31 -4 -7 -112 c-9 -153 -2 -1353 8 -1364 11 -11 1663 -11 1674 0 11 11 11 1463 0 1474 -9 8 -1582 14 -1644 6z m225 -444 c96 -143 180 -263 188 -266 18 -6 84 43 234 177 63 56 123 106 132 111 19 10 9 25 153 -226 167 -289 183 -308 220 -261 11 14 108 176 215 361 157 270 196 330 202 312 3 -12 6 -282 7 -599 l1 -578 -770 0 -770 0 0 615 c0 338 3 615 8 615 4 -1 85 -118 180 -261z"/>
 <path d="M755 675 c-70 -25 -105 -91 -92 -173 8 -46 59 -96 115 -113 37 -11 45 -9 88 12 67 33 89 67 88 135 -1 109 -97 177 -199 139z"/>
 </g>
<g id="layer102" fill="#fdfdfd" stroke="none">
 <path d="M176 1468 c13 -21 346 -523 349 -527 6 -6 310 272 310 284 0 6 -31 65 -70 133 l-70 122 -263 0 c-208 0 -262 -3 -256 -12z"/>
 <path d="M809 1443 c61 -116 397 -686 404 -687 7 -1 357 589 413 697 l15 27 -426 0 -425 0 19 -37z"/>
 <path d="M1662 1330 c0 -19 2 -27 5 -17 2 9 2 25 0 35 -3 9 -5 1 -5 -18z"/>
 </g>

</svg>