<!DOCTYPE svg PUBLIC "-//W3C//DTD SVG 20010904//EN" "http://www.w3.org/TR/2001/REC-SVG-20010904/DTD/svg10.dtd">
<svg version="1.0" xmlns="http://www.w3.org/2000/svg" width="428px" height="360px" viewBox="0 0 4280 3600" preserveAspectRatio="xMidYMid meet">
<g id="layer101" fill="#060606" stroke="none">
 <path d="M850 3226 l0 -343 -302 -6 c-170 -3 -319 -10 -339 -16 -47 -14 -124 -83 -150 -133 -19 -38 -20 -56 -17 -781 3 -827 -2 -765 75 -838 77 -74 74 -73 418 -80 171 -3 311 -7 313 -7 1 -1 2 -225 2 -497 l0 -495 1270 0 1270 0 0 495 c0 272 1 496 3 497 1 0 142 4 312 7 344 7 341 6 418 80 77 73 72 11 75 838 3 725 2 743 -17 781 -26 50 -103 119 -150 133 -20 6 -169 13 -338 16 l-303 6 0 343 0 344 -1270 0 -1270 0 0 -344z m0 -856 l0 -340 1270 0 1270 0 0 340 0 340 292 0 c286 0 292 0 315 -22 l23 -21 0 -717 0 -716 -30 -22 -29 -22 -1841 0 -1841 0 -29 22 -30 22 0 715 0 715 22 23 21 23 294 0 293 0 0 -340z m2350 -1760 l0 -420 -1080 0 -1080 0 0 420 0 420 1080 0 1080 0 0 -420z"/>
 <path d="M3541 1721 c-9 -6 2 -10 38 -12 28 -2 51 -1 51 4 0 4 -8 7 -17 7 -10 0 -27 3 -38 5 -11 3 -26 1 -34 -4z"/>
 <path d="M3390 1534 c0 -12 38 -74 46 -74 3 0 -5 17 -17 38 -28 46 -29 47 -29 36z"/>
 <path d="M3700 1478 c-15 -21 -17 -28 -6 -19 16 13 41 51 33 51 -2 0 -14 -15 -27 -32z"/>
 </g>
<g id="layer102" fill="#fcfcfc" stroke="none">
 <path d="M1040 2795 l0 -615 1080 0 1080 0 0 615 0 615 -1080 0 -1080 0 0 -615z m1869 361 c31 -28 28 -79 -5 -105 -26 -21 -33 -21 -785 -21 l-758 0 -27 23 c-43 37 -32 96 21 118 11 4 360 7 776 6 729 -2 758 -3 778 -21z"/>
 <path d="M443 2713 c75 -2 199 -2 275 0 75 1 13 3 -138 3 -151 0 -213 -2 -137 -3z"/>
 <path d="M3523 2713 c75 -2 199 -2 275 0 75 1 13 3 -138 3 -151 0 -213 -2 -137 -3z"/>
 <path d="M631 1036 c9 -8 219 -13 219 -5 0 5 -50 9 -112 9 -61 0 -109 -2 -107 -4z"/>
 <path d="M1577 1033 c299 -2 787 -2 1085 0 299 1 55 2 -542 2 -597 0 -841 -1 -543 -2z"/>
 <path d="M3390 1031 c0 -8 210 -3 219 5 2 2 -46 4 -107 4 -62 0 -112 -4 -112 -9z"/>
 <path d="M1035 610 c0 -228 1 -322 2 -208 2 115 2 301 0 415 -1 115 -2 21 -2 -207z"/>
 <path d="M3205 610 c0 -228 1 -322 2 -208 2 115 2 301 0 415 -1 115 -2 21 -2 -207z"/>
 </g>

</svg>