<!DOCTYPE svg PUBLIC "-//W3C//DTD SVG 20010904//EN" "http://www.w3.org/TR/2001/REC-SVG-20010904/DTD/svg10.dtd">
<svg version="1.0" xmlns="http://www.w3.org/2000/svg" width="128px" height="128px" viewBox="0 0 1280 1280" preserveAspectRatio="xMidYMid meet">
<g id="layer101" fill="#020202" stroke="none">
 <path d="M745 1148 c-38 -68 -70 -132 -70 -144 0 -21 135 -254 148 -254 4 0 7 21 7 46 l0 45 190 -3 189 -3 -51 95 c-91 170 -118 218 -133 230 -7 6 -54 14 -104 17 l-91 6 0 43 c0 24 -3 44 -7 44 -5 0 -39 -55 -78 -122z"/>
 <path d="M372 1171 c-56 -10 -92 -37 -120 -92 -26 -52 -24 -75 21 -166 29 -58 34 -63 71 -68 23 -4 84 -5 136 -3 l95 3 0 165 0 165 -80 1 c-44 1 -99 -1 -123 -5z"/>
 <path d="M117 918 c-24 -46 -61 -115 -80 -154 l-36 -71 49 -89 48 -90 -42 -24 -41 -25 60 -6 c33 -4 101 -7 152 -8 l92 -1 61 127 c33 69 58 128 56 130 -3 3 -22 -7 -43 -21 -36 -25 -39 -25 -51 -9 -23 32 -137 237 -152 273 -7 19 -16 39 -20 43 -4 5 -28 -29 -53 -75z"/>
 <path d="M963 668 c-100 -178 -100 -167 -1 -226 46 -27 102 -59 124 -70 51 -26 51 -27 125 113 44 82 53 108 53 150 0 98 -52 148 -160 153 l-71 4 -70 -124z"/>
 <path d="M285 382 c-90 -55 -111 -72 -113 -94 -2 -18 17 -60 63 -137 54 -90 73 -115 105 -131 77 -39 138 -17 194 69 29 45 35 62 31 88 -9 50 -139 273 -159 273 -6 0 -60 -31 -121 -68z"/>
 <path d="M650 392 c0 -5 18 -17 40 -27 22 -10 40 -20 40 -23 0 -9 -92 -175 -141 -254 -37 -61 -44 -78 -32 -82 20 -8 297 -8 318 0 9 4 36 46 61 95 24 49 48 89 52 89 4 0 24 -11 45 -25 20 -14 37 -21 37 -15 0 6 -27 64 -60 130 l-60 120 -150 0 c-83 0 -150 -4 -150 -8z"/>
 </g>

</svg>