<!DOCTYPE svg PUBLIC "-//W3C//DTD SVG 20010904//EN" "http://www.w3.org/TR/2001/REC-SVG-20010904/DTD/svg10.dtd">
<svg version="1.0" xmlns="http://www.w3.org/2000/svg" width="85px" height="104px" viewBox="-100 0 700 1040" preserveAspectRatio="xMidYMid meet">
<g id="layer101" fill="#000000" stroke="none">
 <path d="M15 1024 c-39 -40 7 -74 103 -74 108 0 102 25 102 -423 0 -452 6 -427 -100 -427 -37 0 -76 -3 -84 -6 -26 -10 -38 -41 -26 -64 10 -18 21 -20 106 -20 67 0 104 5 126 16 28 15 34 15 67 0 27 -13 60 -16 131 -14 l95 3 3 30 c5 42 -19 55 -100 55 -55 0 -72 4 -88 20 -22 22 -24 77 -20 590 2 243 1 240 94 240 91 0 139 35 106 75 -18 22 -222 21 -240 0 -12 -14 -15 -14 -30 0 -25 22 -222 22 -245 -1z"/>
 </g>

</svg>