<!DOCTYPE svg PUBLIC "-//W3C//DTD SVG 20010904//EN" "http://www.w3.org/TR/2001/REC-SVG-20010904/DTD/svg10.dtd">
<svg version="1.0" xmlns="http://www.w3.org/2000/svg" width="440px" height="440px" viewBox="-500 -500 5000 5000" preserveAspectRatio="xMidYMid meet">
<g id="layer101" fill="#000000" stroke="none">
 <path d="M472 3565 c-98 -30 -171 -110 -193 -211 -32 -142 67 -292 214 -324 37 -8 533 -10 1737 -8 l1685 3 46 21 c177 82 220 313 84 449 -21 21 -59 47 -84 59 l-46 21 -1700 2 c-1407 1 -1707 -1 -1743 -12z"/>
 <path d="M472 2465 c-98 -30 -171 -110 -193 -211 -32 -142 67 -292 214 -324 37 -8 533 -10 1737 -8 l1685 3 46 21 c177 82 220 313 84 449 -21 21 -59 47 -84 59 l-46 21 -1700 2 c-1407 1 -1707 -1 -1743 -12z"/>
 <path d="M472 1365 c-98 -30 -171 -110 -193 -211 -32 -142 67 -292 214 -324 37 -8 533 -10 1737 -8 l1685 3 46 21 c177 82 220 313 84 449 -21 21 -59 47 -84 59 l-46 21 -1700 2 c-1407 1 -1707 -1 -1743 -12z"/>
 </g>

</svg>