<!DOCTYPE svg PUBLIC "-//W3C//DTD SVG 20010904//EN" "http://www.w3.org/TR/2001/REC-SVG-20010904/DTD/svg10.dtd">
<svg version="1.0" xmlns="http://www.w3.org/2000/svg" width="128px" height="134px" viewBox="0 0 1280 1340" preserveAspectRatio="xMidYMid meet">
<g id="layer101" fill="#000000" stroke="none">
 <path d="M512 1260 c-117 -25 -265 -146 -321 -262 -42 -88 -61 -199 -40 -236 19 -36 54 -40 70 -10 7 13 19 52 26 88 29 139 103 237 221 293 61 29 76 32 162 32 88 0 101 -3 162 -33 85 -41 168 -129 197 -207 16 -42 21 -79 21 -149 0 -84 -3 -99 -31 -155 -39 -79 -111 -151 -186 -187 -48 -23 -75 -29 -155 -32 -54 -2 -98 -1 -98 4 0 4 34 42 75 85 42 43 75 85 75 97 0 29 -25 45 -57 37 -28 -7 -215 -186 -248 -238 -17 -27 -17 -27 21 -75 69 -85 211 -222 231 -222 10 0 27 6 38 13 27 21 13 57 -50 125 -63 68 -61 72 35 72 182 0 366 140 431 328 79 231 -33 490 -261 599 -68 33 -83 37 -175 39 -55 2 -119 -1 -143 -6z"/>
 </g>

</svg>