<!DOCTYPE svg PUBLIC "-//W3C//DTD SVG 20010904//EN" "http://www.w3.org/TR/2001/REC-SVG-20010904/DTD/svg10.dtd">
<svg version="1.0" xmlns="http://www.w3.org/2000/svg" width="225px" height="225px" viewBox="0 0 2250 2250" preserveAspectRatio="xMidYMid meet">
<g id="layer101" fill="#1a1718" stroke="none">
 <path d="M935 2241 c15 -6 9 -10 -29 -15 -70 -11 -240 -72 -314 -112 -198 -111 -372 -292 -471 -490 -43 -87 -88 -223 -98 -293 -5 -35 -8 -41 -14 -26 -4 11 -8 -66 -8 -172 -1 -118 3 -194 9 -198 5 -3 10 -15 10 -25 0 -30 49 -179 86 -258 96 -210 284 -407 494 -521 75 -40 271 -111 307 -111 10 0 24 -5 30 -11 18 -18 324 -6 428 18 378 86 689 360 818 720 48 131 62 225 61 393 0 135 -3 167 -26 250 -100 364 -354 654 -681 781 -148 57 -279 79 -461 78 -89 0 -152 -4 -141 -8z m435 -250 c272 -79 488 -276 594 -543 41 -104 58 -201 58 -328 -1 -327 -178 -624 -466 -785 -82 -45 -189 -80 -315 -101 -90 -14 -118 -15 -204 -5 -229 28 -410 120 -568 289 -119 127 -191 265 -225 431 -20 102 -15 300 11 401 25 98 107 259 174 342 121 150 314 269 506 312 103 23 334 16 435 -13z"/>
 <path d="M1080 1672 c-63 -31 -65 -41 -68 -406 -3 -329 -3 -329 -65 -269 -123 118 -146 129 -207 98 -61 -31 -77 -108 -35 -166 38 -52 345 -337 382 -354 20 -10 42 -13 60 -9 17 5 102 80 225 202 190 187 198 197 198 234 0 72 -42 118 -106 118 -39 0 -63 -16 -146 -98 -77 -75 -77 -75 -80 260 -3 319 -4 337 -23 358 -18 21 -73 50 -92 50 -4 0 -24 -8 -43 -18z"/>
 </g>

</svg>